# xmcd CD database file
#
# Track frame offsets:
#	150
#	15160
#	29527
#	53169
#	82960
#	112298
#	141236
#	161271
#	182691
#	210154
#	220537
#
# Disc length: 3425 seconds
#
# Revision: 5
# Processed by: cddbd v1.5.2PL0 Copyright (c) Steve Scherf et al.
# Submitted via: CDex 1.51
#
DISCID=860d5f0b
DTITLE=Yaron Herman Trio - Muse  (Yaron Herman, piano - Matt Brewer, bass - Gerald Cleaver, drums)
DYEAR=2009
DGENRE=Jazz
TTITLE0=Muse  (Yaron Herman)
TTITLE1=Con Alma  (Dizzy Gillespie)
TTITLE2=Vertigo  (Yaron Herman)
TTITLE3=Lamidbar  (Alexander Argov)
TTITLE4=Perpetua  (Yaron Herman)
TTITLE5=Isobel  (Björk)
TTITLE6=Joya  (Matt Brewer)
TTITLE7=Lu yehi  (Naomi Shemer
TTITLE8=Twins  (Yaron Herman)
TTITLE9=And the rain  (Matt Brewer)
TTITLE10=Rina ballé  (Yaron Herman)
EXTD=YEAR: 2009
EXTT0=
EXTT1=
EXTT2=
EXTT3=
EXTT4=
EXTT5=
EXTT6=
EXTT7=
EXTT8=
EXTT9=
EXTT10=
PLAYORDER=
